<?xml version="1.0" encoding="UTF-8"?>
<svg version="1.1" xmlns="http://www.w3.org/2000/svg" width="500" height="500">
<path d="M0 0 C0 0.33 0 0.66 0 1 C131.67 1.33 263.34 1.66 399 2 C399 135.98 399 269.96 399 408 C265.02 408 131.04 408 -7 408 C-7.3125 208.125 -7.3125 208.125 -7.38793945 144.89892578 C-7.42448238 126.27634769 -7.42448238 126.27634769 -7.4650116 107.65377808 C-7.48302576 99.32719206 -7.49281664 91.0006451 -7.49711609 82.67404175 C-7.50209667 73.08245842 -7.51732344 63.49095824 -7.54548384 53.89941388 C-7.55957551 48.98776497 -7.56888313 44.07623287 -7.56503928 39.16456246 C-7.56165706 34.73074416 -7.57183731 30.29718079 -7.59324265 25.86341476 C-7.59854704 24.25335097 -7.5986951 22.64326097 -7.59339368 21.03319716 C-7.58694808 18.85283652 -7.5986749 16.67333265 -7.61523914 14.4930439 C-7.61808705 12.67152548 -7.61808705 12.67152548 -7.62099248 10.8132087 C-7.74606496 9.88484983 -7.87113744 8.95649096 -8 8 C-8.99 7.34 -9.98 6.68 -11 6 C-10.42655063 3.13275314 -10.1385485 2.1385485 -8 0 C-4.69164744 -0.93312508 -3.32320026 -1.10773342 0 0 Z M9 18 C9 141.42 9 264.84 9 392 C132.42 392 255.84 392 383 392 C383 268.58 383 145.16 383 18 C259.58 18 136.16 18 9 18 Z " fill="#2C7EFC" transform="translate(57,48)"/>
<path d="M0 0 C7.59 0 15.18 0 23 0 C23.01213028 2.38754265 23.01213028 2.38754265 23.02450562 4.82331848 C23.1020894 19.845151 23.18974442 34.86688689 23.28752708 49.88860035 C23.33753839 57.61085362 23.3839821 65.33309689 23.421875 73.05541992 C23.45493162 79.79026152 23.49483711 86.52502274 23.54279006 93.25977534 C23.56791996 96.82207806 23.58974017 100.3843284 23.60334396 103.94669533 C23.61870081 107.93438795 23.64935575 111.92182836 23.68115234 115.90942383 C23.68331253 117.07612106 23.68547272 118.2428183 23.68769836 119.44487 C23.83637909 134.10249568 26.86884727 145.40096816 36 157 C36.66 157.33 37.32 157.66 38 158 C38 158.66 38 159.32 38 160 C38.886875 160.268125 39.77375 160.53625 40.6875 160.8125 C44 162 44 162 46.375 163.5 C57.25489962 169.7170855 75.88442283 169.05612764 87.671875 165.984375 C92.73721362 164.21043785 96.72888164 162.20804264 101 159 C101.66 159 102.32 159 103 159 C103 158.34 103 157.68 103 157 C104.31200404 155.64567325 105.64631404 154.31266518 107 153 C107.33 152.34 107.66 151.68 108 151 C108.66 151 109.32 151 110 151 C110.12314418 150.45131413 110.24628836 149.90262827 110.37316418 149.33731556 C111 147 111 147 111.95402241 144.46415997 C114.90681605 136.60759837 115.57562602 129.69854896 115.5300293 121.3527832 C115.53876068 120.04565872 115.54749207 118.73853424 115.55648804 117.39179993 C115.57985668 113.84699756 115.57939776 110.30256644 115.57457328 106.75770593 C115.57397561 103.03722781 115.59673003 99.31689294 115.61714172 95.59648132 C115.65239546 88.56799452 115.66854306 81.53961081 115.6769169 74.51104563 C115.68994052 64.16884044 115.72815294 53.82671946 115.77101612 43.48459911 C115.77415481 42.72661488 115.77729349 41.96863065 115.78052729 41.1876772 C115.78680642 39.67727135 115.79314996 38.16686577 115.79955989 36.65646046 C115.81764245 32.22941198 115.82873528 27.80241448 115.83385694 23.37533247 C115.83675912 21.29236363 115.84176492 19.20941202 115.84762573 17.12644958 C115.85448861 14.5826186 115.85764511 12.03877409 115.85655212 9.49493408 C115.8605603 8.38340469 115.86456848 7.27187531 115.86869812 6.12666321 C115.8699554 5.15500875 115.87121267 4.18335428 115.87250805 3.18225574 C116 1 116 1 117 0 C118.62257544 -0.0991657 120.24939831 -0.13079777 121.875 -0.1328125 C122.85984375 -0.13410156 123.8446875 -0.13539063 124.859375 -0.13671875 C125.89578125 -0.13285156 126.9321875 -0.12898437 128 -0.125 C129.55460937 -0.13080078 129.55460937 -0.13080078 131.140625 -0.13671875 C132.12546875 -0.13542969 133.1103125 -0.13414062 134.125 -0.1328125 C135.03507813 -0.13168457 135.94515625 -0.13055664 136.8828125 -0.12939453 C139 0 139 0 140 1 C140.11207793 2.4532394 140.15568114 3.9118261 140.17167664 5.36929321 C140.18435577 6.31347107 140.19703491 7.25764893 140.21009827 8.23043823 C140.21899582 9.27539459 140.22789337 10.32035095 140.23706055 11.39697266 C140.25017273 12.49158813 140.26328491 13.58620361 140.27679443 14.71398926 C140.31884337 18.36397717 140.35323555 22.01398653 140.38671875 25.6640625 C140.41238536 28.20828364 140.43816931 30.7525036 140.46406555 33.29672241 C140.51719157 38.65530776 140.56609351 44.01391292 140.61254883 49.37255859 C140.66587966 55.5076204 140.73098701 61.642477 140.80188721 67.77735865 C140.86992456 73.7193724 140.92537503 79.66146465 140.976511 85.60364914 C140.99964921 88.10781795 141.02631575 90.61195711 141.05682945 93.11604691 C141.63265835 141.62156991 141.63265835 141.62156991 131 163 C130.34 163 129.68 163 129 163 C128.690625 163.78375 128.38125 164.5675 128.0625 165.375 C127 168 127 168 126 170 C125.34 170 124.68 170 124 170 C124 170.66 124 171.32 124 172 C123.34 172 122.68 172 122 172 C122 172.66 122 173.32 122 174 C121.34 174 120.68 174 120 174 C120 174.66 120 175.32 120 176 C113.34784148 181.2239388 106.04232842 184.56143794 98 187 C96.96939453 187.32097656 96.96939453 187.32097656 95.91796875 187.6484375 C75.6570013 193.34296603 48.62358726 191.82819006 30 182 C16.58405064 174.2910068 7.61497365 163.12926293 2.82421875 148.41015625 C0.48094672 138.71500707 -0.28668795 129.38548634 -0.22705078 119.42871094 C-0.22734283 118.12973373 -0.22763489 116.83075653 -0.22793579 115.49241638 C-0.22850378 111.97045489 -0.21684047 108.44863286 -0.20278788 104.92670345 C-0.19018697 101.23119269 -0.18910271 97.53567786 -0.18673706 93.84014893 C-0.18054955 86.86003096 -0.16417615 79.87997651 -0.14403808 72.89988637 C-0.12159353 64.94571761 -0.11066425 56.99154564 -0.10064721 49.03735304 C-0.07980713 32.69153061 -0.04427655 16.34577595 0 0 Z " fill="#2C7EFC" transform="translate(162,192)"/>
<path d="M0 0 C0.68320312 0.32613281 1.36640625 0.65226563 2.0703125 0.98828125 C3.39139664 1.63653416 4.69857288 2.31313569 6 3 C6 3.66 6 4.32 6 5 C6.763125 5.268125 7.52625 5.53625 8.3125 5.8125 C10.88988618 6.95134505 12.26954864 7.81416671 14 10 C14 10.66 14 11.32 14 12 C14.66 12 15.32 12 16 12 C29.79288559 27.96713357 31.17790412 48.67960818 31.11352539 68.83691406 C31.11367142 70.0578627 31.11381744 71.27881134 31.1139679 72.53675842 C31.1133958 75.84381887 31.10842457 79.15081476 31.10139394 82.45786381 C31.09508872 85.92916227 31.09455098 89.40046183 31.09336853 92.87176514 C31.09027616 99.42686916 31.08209135 105.98195626 31.07201904 112.53705287 C31.06079243 120.0075615 31.05533104 127.478071 31.05032361 134.94858599 C31.03990669 150.29906876 31.02158764 165.64952825 31 181 C23.08 181 15.16 181 7 181 C6.98541748 177.05893311 6.97083496 173.11786621 6.95581055 169.05737305 C6.90541162 156.01748344 6.83895569 142.9777168 6.76428509 129.93794537 C6.71941469 122.03408331 6.6799801 114.13026542 6.65356445 106.22631836 C6.63051316 99.33323585 6.59703625 92.44029417 6.55129844 85.54732352 C6.52746181 81.90115895 6.50867071 78.25513302 6.50238609 74.60889244 C6.49515573 70.52771708 6.4646385 66.44702112 6.43237305 62.3659668 C6.43380814 61.17121735 6.43524323 59.9764679 6.4367218 58.74551392 C6.32820372 49.00176648 4.64454649 40.62558634 0 32 C0 31.34 0 30.68 0 30 C-0.66 30 -1.32 30 -2 30 C-3.19140625 28.64453125 -3.19140625 28.64453125 -4.5625 26.8125 C-10.21073801 19.99042279 -18.34650345 16.73865025 -26.9375 15.375 C-44.08641672 13.78445966 -60.17288505 14.82576176 -74 26 C-75.55463412 27.92582486 -76.73001029 29.86641728 -78 32 C-78.66 32 -79.32 32 -80 32 C-80.103125 32.66 -80.20625 33.32 -80.3125 34 C-81 37 -81 37 -82.5 40.6875 C-85.75670658 49.18574381 -85.16013097 58.73290883 -85.20532227 67.70166016 C-85.22017166 69.54727539 -85.22017166 69.54727539 -85.23532104 71.43017578 C-85.26131912 74.77244682 -85.28325794 78.11469639 -85.30332303 81.45700502 C-85.32534586 84.96170774 -85.35265401 88.46636938 -85.37937927 91.97103882 C-85.42908768 98.59346909 -85.47410659 105.21592242 -85.51740164 111.83839738 C-85.56696204 119.38385748 -85.6218098 126.92927632 -85.67708123 134.4746964 C-85.79056536 149.98309411 -85.89677836 165.49153007 -86 181 C-93.59 181 -101.18 181 -109 181 C-109.02319955 164.24008457 -109.04102048 147.48017582 -109.05181217 130.72024822 C-109.05695726 122.93743529 -109.06396574 115.15463256 -109.07543945 107.37182617 C-109.08544107 100.58430325 -109.09186642 93.79678771 -109.09408849 87.00925761 C-109.09538633 83.41899597 -109.09841305 79.82875544 -109.10573006 76.2385006 C-109.11385301 72.21978209 -109.11398763 68.20109975 -109.11352539 64.18237305 C-109.11712067 63.00632507 -109.12071594 61.8302771 -109.12442017 60.61859131 C-109.1022383 42.72415965 -106.31658442 26.54989425 -95 12 C-94.34 12 -93.68 12 -93 12 C-92.67 11.01 -92.34 10.02 -92 9 C-91.34 9 -90.68 9 -90 9 C-90 8.34 -90 7.68 -90 7 C-66.42362025 -12.88845442 -26.79974204 -12.89894126 0 0 Z " fill="#2C7EFC" transform="translate(330,131)"/>
<path d="M0 0 C0 0.33 0 0.66 0 1 C131.67 1.33 263.34 1.66 399 2 C399 135.98 399 269.96 399 408 C265.02 408 131.04 408 -7 408 C-7.3125 208.125 -7.3125 208.125 -7.38793945 144.89892578 C-7.42448238 126.27634769 -7.42448238 126.27634769 -7.4650116 107.65377808 C-7.48302576 99.32719206 -7.49281664 91.0006451 -7.49711609 82.67404175 C-7.50209667 73.08245842 -7.51732344 63.49095824 -7.54548384 53.89941388 C-7.55957551 48.98776497 -7.56888313 44.07623287 -7.56503928 39.16456246 C-7.56165706 34.73074416 -7.57183731 30.29718079 -7.59324265 25.86341476 C-7.59854704 24.25335097 -7.5986951 22.64326097 -7.59339368 21.03319716 C-7.58694808 18.85283652 -7.5986749 16.67333265 -7.61523914 14.4930439 C-7.61808705 12.67152548 -7.61808705 12.67152548 -7.62099248 10.8132087 C-7.74606496 9.88484983 -7.87113744 8.95649096 -8 8 C-8.99 7.34 -9.98 6.68 -11 6 C-10.42655063 3.13275314 -10.1385485 2.1385485 -8 0 C-4.69164744 -0.93312508 -3.32320026 -1.10773342 0 0 Z M-2 4 C-3.32860925 4.35169068 -4.66158328 4.68770276 -6 5 C-6.0457334 55.79619358 -6.08099679 106.59238509 -6.10213066 157.38859519 C-6.10463221 163.3795062 -6.10722084 169.37041717 -6.10986328 175.36132812 C-6.1103879 176.5540588 -6.11091252 177.74678947 -6.11145304 178.9756635 C-6.1201662 198.31246602 -6.13594116 217.64925671 -6.15430559 236.9860522 C-6.17297935 256.81325869 -6.18411136 276.64045897 -6.18817699 296.4676739 C-6.1909273 308.7115465 -6.19962769 320.95538566 -6.21583293 333.19924797 C-6.22636869 341.58441705 -6.2296084 349.96956872 -6.22700275 358.35474394 C-6.22571612 363.19945217 -6.22774952 368.04410175 -6.23841095 372.88879967 C-6.24808653 377.31761449 -6.24867231 381.7463308 -6.24179779 386.17514999 C-6.24094715 387.78352146 -6.24353231 389.39189888 -6.24976636 391.00025849 C-6.25770864 393.17448662 -6.25351823 395.34835179 -6.24609566 397.52257347 C-6.2468551 398.73388132 -6.24761454 399.94518918 -6.24839699 401.19320333 C-6.29052085 404.1374923 -6.29052085 404.1374923 -4 406 C-1.05602687 406.30618198 -1.05602687 406.30618198 2.4718399 406.25447559 C3.1472095 406.25768207 3.8225791 406.26088855 4.51841444 406.26419219 C6.80390515 406.27255889 9.08913832 406.26654488 11.37463379 406.26069641 C13.02073163 406.26371406 14.66682807 406.26760158 16.312922 406.27228898 C20.85379396 406.28262752 25.39458748 406.28037237 29.93546605 406.27610838 C34.82577585 406.27365174 39.71606623 406.28264201 44.60636902 406.29014587 C54.19339125 406.30292427 63.78038552 406.30468269 73.36741483 406.30234561 C81.15577913 406.30056591 88.9441349 406.30230459 96.73249817 406.30657005 C97.83901888 406.30716524 98.94553959 406.30776043 100.08559123 406.30837366 C102.3331397 406.30958535 104.58068817 406.31079948 106.82823664 406.31201603 C127.92653449 406.32290352 149.02481637 406.32072327 170.12311512 406.31463119 C189.44687127 406.30946005 208.77057704 406.32072052 228.09432322 406.33972941 C247.91255845 406.35907604 267.73076982 406.36736946 287.54901457 406.36360615 C298.68485897 406.36168939 309.82066047 406.36422779 320.95649719 406.37832069 C330.43561105 406.39019505 339.9146556 406.39168392 349.39377034 406.37953053 C354.23446403 406.37361416 359.07503071 406.37261795 363.91571617 406.38453293 C368.34080093 406.39529882 372.7656512 406.39240063 377.19072455 406.37827124 C378.79768823 406.37559845 380.40466975 406.37807066 382.01161605 406.38600711 C384.18408689 406.39599786 386.3557242 406.38779209 388.5281601 406.37473011 C390.34349566 406.37481263 390.34349566 406.37481263 392.19550467 406.37489682 C393.12098813 406.25118087 394.04647159 406.12746492 395 406 C397.40054224 402.39918665 397.2488381 400.81119627 397.24609566 396.53005123 C397.24955719 395.53552656 397.24955719 395.53552656 397.25308865 394.52091047 C397.25841231 392.28344845 397.24938513 390.04627018 397.24050903 387.80882263 C397.24138062 386.19486122 397.24313074 384.58090008 397.24568737 382.96694046 C397.25017421 378.51952841 397.24213889 374.07221209 397.23213124 369.62481225 C397.22351809 364.83337088 397.2264154 360.0419352 397.22793579 355.25048828 C397.22898604 346.94442395 397.22269474 338.63839097 397.21146011 330.33233452 C397.19522444 318.32090349 397.18999905 306.30948765 397.18748413 294.29804683 C397.18310348 274.80879672 397.16978487 255.31956331 397.15087891 235.83032227 C397.13253421 216.89998458 397.11837035 197.96965142 397.10986328 179.03930664 C397.10933783 177.87331035 397.10881239 176.70731405 397.10827102 175.50598454 C397.10566089 169.65640686 397.10313343 163.80682916 397.10064721 157.95725143 C397.08135472 112.79744566 397.05015043 67.63765543 397.00932419 22.47786421 C397.00868999 21.77528755 397.00805578 21.07271088 397.00740236 20.34884402 C397.00571264 18.48324548 397.00400761 16.61764696 397.00230134 14.75204843 C397.00012067 12.14429887 397.00928772 9.5449018 397.0625 6.9375 C397.34125224 4.11061712 397.34125224 4.11061712 396 3 C393.90126171 2.90113901 391.79912544 2.87444277 389.69806004 2.87415886 C389.02890941 2.87270542 388.35975877 2.87125198 387.67033085 2.86975449 C385.40003587 2.86606884 383.12980696 2.8695927 380.85951233 2.87301636 C379.22665336 2.87186555 377.59379465 2.8702783 375.96093649 2.86828911 C371.45202687 2.86409022 366.94313826 2.86618899 362.43422854 2.86927533 C357.58003697 2.87152697 352.72584916 2.86805099 347.87165833 2.86529541 C338.35335172 2.86083607 328.83505298 2.86181493 319.31674606 2.86470805 C311.58413841 2.86696158 303.85153298 2.86727483 296.11892509 2.86618423 C294.47142992 2.86595439 294.47142992 2.86595439 292.79065202 2.86571989 C290.55977301 2.86540018 288.32889401 2.86507597 286.098015 2.8647473 C265.15185377 2.861892 244.2056969 2.86518025 223.25953638 2.87054767 C205.26815553 2.87501513 187.27678113 2.87424035 169.28540039 2.86962891 C148.41845148 2.86428296 127.5515064 2.86216735 106.6845569 2.86524117 C104.46133483 2.86555974 102.23811275 2.86587411 100.01489067 2.86618423 C98.37387379 2.86641565 98.37387379 2.86641565 96.69970505 2.86665174 C88.9726292 2.86751688 81.24555578 2.86605406 73.5184803 2.86370468 C64.10706784 2.86090623 54.69566373 2.86164587 45.28425223 2.86698543 C40.47803543 2.86962193 35.67183256 2.87062837 30.86561584 2.86733627 C26.47202053 2.86437223 22.07845217 2.86596797 17.68485933 2.87131383 C16.08930591 2.87243755 14.49375025 2.8718478 12.89819825 2.86943804 C10.74135945 2.86642864 8.58461485 2.86948422 6.42778111 2.87415886 C4.62530237 2.87440239 4.62530237 2.87440239 2.78640991 2.87465084 C0.04349209 2.80885154 0.04349209 2.80885154 -2 4 Z " fill="#5193F2" transform="translate(57,48)"/>
<path d="M0 0 C0.66 0 1.32 0 2 0 C2 123.09 2 246.18 2 373 C1.34 373 0.68 373 0 373 C-0.81895862 363.3110883 -1.14401297 353.72309267 -1.12698364 344.0002594 C-1.1281389 342.54123535 -1.12972913 341.0822116 -1.13171089 339.62318844 C-1.13584827 335.6549716 -1.13383911 331.68677912 -1.13072467 327.71856225 C-1.12844795 323.42347248 -1.13196134 319.12838669 -1.13470459 314.83329773 C-1.13913626 306.43738825 -1.13819765 298.04148774 -1.13529195 289.64557792 C-1.13302872 282.82245848 -1.13272937 275.99934155 -1.13381577 269.17622185 C-1.133969 268.20321261 -1.13412223 267.23020337 -1.13428011 266.22770901 C-1.13459985 264.2508266 -1.13492406 262.2739442 -1.1352527 260.29706179 C-1.13809959 241.790476 -1.13483233 223.28389517 -1.12945233 204.77731019 C-1.12498007 188.90142371 -1.12576523 173.02554455 -1.13037109 157.1496582 C-1.13572232 138.69604924 -1.13783016 120.24244462 -1.13475883 101.78883499 C-1.13444029 99.82157926 -1.13412592 97.85432353 -1.13381577 95.88706779 C-1.13366149 94.91921579 -1.13350721 93.95136379 -1.13334826 92.95418294 C-1.13248512 86.13650809 -1.13394152 79.318836 -1.13629532 72.50116158 C-1.13909936 64.19729033 -1.13834204 55.89342853 -1.13301457 47.58955837 C-1.13038652 43.35375623 -1.12935744 39.11796984 -1.13266373 34.88216782 C-1.13564476 31.00447949 -1.13400371 27.12682154 -1.12868617 23.24913596 C-1.12756979 21.84701686 -1.12813593 20.44489518 -1.13056196 19.04277772 C-1.15119773 6.12505883 -1.15119773 6.12505883 0 0 Z " fill="#4589EF" transform="translate(64,66)"/>
<path d="M0 0 C0.98484375 -0.00128906 1.9696875 -0.00257813 2.984375 -0.00390625 C4.02078125 -0.00003906 5.0571875 0.00382813 6.125 0.0078125 C7.67960937 0.00201172 7.67960937 0.00201172 9.265625 -0.00390625 C10.25046875 -0.00261719 11.2353125 -0.00132812 12.25 0 C13.16007812 0.00112793 14.07015625 0.00225586 15.0078125 0.00341797 C17.125 0.1328125 17.125 0.1328125 18.125 1.1328125 C18.23707793 2.5860519 18.28068114 4.0446386 18.29667664 5.50210571 C18.31569534 6.9183725 18.31569534 6.9183725 18.33509827 8.36325073 C18.34399582 9.40820709 18.35289337 10.45316345 18.36206055 11.52978516 C18.37517273 12.62440063 18.38828491 13.71901611 18.40179443 14.84680176 C18.44384337 18.49678967 18.47823555 22.14679903 18.51171875 25.796875 C18.53738536 28.34109614 18.56316931 30.8853161 18.58906555 33.42953491 C18.64219157 38.78812026 18.69109351 44.14672542 18.73754883 49.50537109 C18.79087966 55.6404329 18.85598701 61.7752895 18.92688721 67.91017115 C18.99492456 73.8521849 19.05037503 79.79427715 19.101511 85.73646164 C19.12464921 88.24063045 19.15131575 90.74476961 19.18182945 93.24885941 C19.76985927 142.78213877 19.76985927 142.78213877 10.125 160.1328125 C9.465 160.4628125 8.805 160.7928125 8.125 161.1328125 C7.795 158.8228125 7.465 156.5128125 7.125 154.1328125 C8.445 154.1328125 9.765 154.1328125 11.125 154.1328125 C11.18558594 153.15699219 11.24617188 152.18117188 11.30859375 151.17578125 C11.39238281 149.90347656 11.47617187 148.63117188 11.5625 147.3203125 C11.64371094 146.05574219 11.72492188 144.79117188 11.80859375 143.48828125 C12.18401925 139.50691704 12.89980672 137.47060242 15.125 134.1328125 C15.42119026 131.63838399 15.42119026 131.63838399 15.36550903 128.79878235 C15.36825836 127.69240417 15.37100769 126.586026 15.37384033 125.44612122 C15.36664978 124.2319603 15.35945923 123.01779938 15.35205078 121.7668457 C15.35234283 120.48868988 15.35263489 119.21053406 15.35293579 117.89364624 C15.35351025 114.38768127 15.34174096 110.8818528 15.32778788 107.37591958 C15.31529599 103.71238663 15.31411124 100.04885064 15.31173706 96.38529968 C15.30551775 89.44738138 15.28910085 82.509526 15.26903808 75.57163543 C15.2466931 67.67329693 15.23568918 59.77495546 15.22564721 51.87659323 C15.204735 35.62862842 15.16914801 19.38073097 15.125 3.1328125 C9.185 3.1328125 3.245 3.1328125 -2.875 3.1328125 C-2.875 46.3628125 -2.875 89.5928125 -2.875 134.1328125 C-3.535 134.1328125 -4.195 134.1328125 -4.875 134.1328125 C-5.37 135.1228125 -5.37 135.1228125 -5.875 136.1328125 C-5.89832838 118.54827132 -5.91597887 100.96373496 -5.92681217 83.37918186 C-5.93197526 75.21494086 -5.9390182 67.05070945 -5.95043945 58.88647461 C-5.9603859 51.77309966 -5.96685333 44.65973165 -5.96908849 37.54634994 C-5.97039567 33.77755526 -5.97348194 30.00878047 -5.98073006 26.23999214 C-5.98874316 22.03962434 -5.98899116 17.83929142 -5.98852539 13.63891602 C-5.99212067 12.38016159 -5.99571594 11.12140717 -5.99942017 9.82450867 C-5.9980455 8.68722321 -5.99667084 7.54993774 -5.99525452 6.37818909 C-5.99617631 5.38357446 -5.9970981 4.38895983 -5.99804783 3.36420536 C-5.76949404 -0.78046983 -3.63252493 0.00450207 0 0 Z " fill="#337DEB" transform="translate(283.875,191.8671875)"/>
<path d="M0 0 C123.42 0 246.84 0 374 0 C374 0.66 374 1.32 374 2 C351.60437501 2.2148141 329.2085472 2.39806616 306.8125 2.5625 C305.94729186 2.56888284 305.08208371 2.57526568 304.19065714 2.58184195 C234.93695116 3.09044831 165.69163772 2.93175264 96.4375 2.5625 C95.23339997 2.55610205 94.02929994 2.5497041 92.78871202 2.54311228 C61.85904091 2.37844386 30.92947584 2.19794125 0 2 C0 1.34 0 0.68 0 0 Z " fill="#4D8DEC" transform="translate(66,64)"/>
<path d="M0 0 C1.05597093 3.32957732 0.94856447 5.97959697 0.57533264 9.43621826 C-0.04077831 15.97578092 -0.17230354 22.45515472 -0.20532227 29.02050781 C-0.21522186 30.26096359 -0.22512146 31.50141937 -0.23532104 32.77946472 C-0.26126548 36.14021175 -0.28322548 39.50093811 -0.30332303 42.86172199 C-0.32538931 46.38910114 -0.3526757 49.91644008 -0.37937927 53.44378662 C-0.42903013 60.10510829 -0.47406978 66.76645261 -0.51740164 73.42781806 C-0.56701202 81.01927232 -0.62184084 88.61068618 -0.67708123 96.20210123 C-0.79047672 111.80136359 -0.89722084 127.40066388 -1 143 C5.27 142.67 11.54 142.34 18 142 C18.01030746 140.47316589 18.02061493 138.94633179 18.03123474 137.37322998 C18.12916703 122.95510598 18.23186465 108.53702456 18.33933926 94.11896896 C18.39446654 86.70725745 18.44791324 79.29554114 18.49731445 71.88378906 C18.54040907 65.41888114 18.58674777 58.95400571 18.63687855 52.48914838 C18.66327771 49.07046145 18.68812265 45.65178013 18.70907402 42.23305511 C18.73336007 38.40369746 18.76337924 34.57442309 18.79467773 30.74511719 C18.8004332 29.62876892 18.80618866 28.51242065 18.81211853 27.36224365 C18.9933701 7.73784527 18.9933701 7.73784527 22 1 C22.99 1 23.98 1 25 1 C24.690625 1.94875 24.38125 2.8975 24.0625 3.875 C21.60452007 12.56571913 21.83981444 21.74374097 21.79467773 30.70166016 C21.77982834 32.54727539 21.77982834 32.54727539 21.76467896 34.43017578 C21.73868088 37.77244682 21.71674206 41.11469639 21.69667697 44.45700502 C21.67465414 47.96170774 21.64734599 51.46636938 21.62062073 54.97103882 C21.57091232 61.59346909 21.52589341 68.21592242 21.48259836 74.83839738 C21.43303796 82.38385748 21.3781902 89.92927632 21.32291877 97.4746964 C21.20943464 112.98309411 21.10322164 128.49153007 21 144 C13.41 144 5.82 144 -2 144 C-2.02319955 127.24008457 -2.04102048 110.48017582 -2.05181217 93.72024822 C-2.05695726 85.93743529 -2.06396574 78.15463256 -2.07543945 70.37182617 C-2.08544107 63.58430325 -2.09186642 56.79678771 -2.09408849 50.00925761 C-2.09538633 46.41899597 -2.09841305 42.82875544 -2.10573006 39.2385006 C-2.11385301 35.21978209 -2.11398763 31.20109975 -2.11352539 27.18237305 C-2.11712067 26.00632507 -2.12071594 24.8302771 -2.12442017 23.61859131 C-2.10296312 6.30888937 -2.10296312 6.30888937 0 0 Z " fill="#5C95E8" transform="translate(223,168)"/>
<path d="M0 0 C-1.3125 1.5 -1.3125 1.5 -3 3 C-3.99 3 -4.98 3 -6 3 C-6 136.32 -6 269.64 -6 407 C-6.33 407 -6.66 407 -7 407 C-7.00097681 406.15648755 -7.00195362 405.31297509 -7.00296003 404.44390166 C-7.06117592 354.49970349 -7.13492996 304.55554902 -7.22898628 254.61140481 C-7.24025505 248.62049404 -7.2513934 242.62958304 -7.26245117 236.63867188 C-7.26465486 235.4459412 -7.26685854 234.25321053 -7.269129 233.0243365 C-7.30454424 213.68754707 -7.32938448 194.35075768 -7.35034702 175.0139478 C-7.37207546 155.18671451 -7.40509758 135.35952348 -7.44870156 115.5323261 C-7.47526937 103.28845965 -7.49292691 91.04464589 -7.49934604 78.80075203 C-7.50458429 70.41555272 -7.52074828 62.03041983 -7.54566566 53.64525606 C-7.55973453 48.80053838 -7.56883152 43.95593973 -7.56500816 39.11120033 C-7.56161878 34.68231445 -7.57184109 30.25368358 -7.59323552 25.82485001 C-7.59854031 24.21648926 -7.59870012 22.60810226 -7.59339563 20.99974151 C-7.58695076 18.82532603 -7.59867379 16.65176989 -7.61523914 14.47742653 C-7.61713775 13.26611868 -7.61903635 12.05481082 -7.62099248 10.80679667 C-7.74606496 9.88055377 -7.87113744 8.95431087 -8 8 C-8.99 7.34 -9.98 6.68 -11 6 C-10.42655063 3.13275314 -10.1385485 2.1385485 -8 0 C-4.69164744 -0.93312508 -3.32320026 -1.10773342 0 0 Z " fill="#377BE2" transform="translate(57,48)"/>
<path d="M0 0 C0.33 0 0.66 0 1 0 C1.49232068 1.74634505 1.9678957 3.49740978 2.4375 5.25 C2.70433594 6.22453125 2.97117187 7.1990625 3.24609375 8.203125 C5.1194048 17.63762416 5.14414239 27.25057832 5.11352539 36.83691406 C5.11367142 38.0578627 5.11381744 39.27881134 5.1139679 40.53675842 C5.1133958 43.84381887 5.10842457 47.15081476 5.10139394 50.45786381 C5.09508872 53.92916227 5.09455098 57.40046183 5.09336853 60.87176514 C5.09027616 67.42686916 5.08209135 73.98195626 5.07201904 80.53705287 C5.06079243 88.0075615 5.05533104 95.478071 5.05032361 102.94858599 C5.03990669 118.29906876 5.02158764 133.64952825 5 149 C-2.92 149 -10.84 149 -19 149 C-19 106.1 -19 63.2 -19 19 C-18.67 19 -18.34 19 -18 19 C-18 61.57 -18 104.14 -18 148 C-11.07 148 -4.14 148 3 148 C2.91554307 131.2227312 2.82076657 114.4455664 2.71247292 97.66843605 C2.66244257 89.87777272 2.61599891 82.08711941 2.578125 74.29638672 C2.54508836 67.50259134 2.50519351 60.70887597 2.45720994 53.91516912 C2.43206043 50.32104011 2.41024572 46.72696339 2.39665604 43.13277054 C2.38132206 39.11134683 2.35067053 35.09017473 2.31884766 31.06884766 C2.31668747 29.88920441 2.31452728 28.70956116 2.31230164 27.49417114 C2.25212368 21.52360619 1.83198919 15.99464558 0.43849754 10.17970848 C-0.25099964 6.75231673 -0.12905422 3.48446404 0 0 Z " fill="#8AAEE5" transform="translate(356,163)"/>
<path d="M0 0 C0.67996485 -0.00061931 1.3599297 -0.00123863 2.06049955 -0.00187671 C4.34959734 -0.00149397 6.63837765 0.01328157 8.92742538 0.02793312 C10.58079628 0.0311904 12.23416912 0.03356458 13.88754249 0.03512919 C18.43919278 0.0420032 22.99071701 0.06144765 27.54231882 0.08289003 C32.44752502 0.10381507 37.35275462 0.11316015 42.25799179 0.12389565 C50.75940715 0.1440941 59.26077312 0.17166588 67.76214981 0.2042141 C80.05378283 0.25126302 92.34542852 0.28724093 104.63710567 0.32049735 C124.57845051 0.37475228 144.51975639 0.43798862 164.46105576 0.50684547 C183.83474107 0.5737232 203.20843244 0.63638818 222.58214951 0.69336891 C223.77589684 0.69688135 224.96964418 0.7003938 226.19956568 0.70401268 C232.18811144 0.72160712 238.17665744 0.73911855 244.16520357 0.7565887 C293.86379945 0.90167987 343.562341 1.06133533 393.26086044 1.23047829 C393.26086044 1.56047829 393.26086044 1.89047829 393.26086044 2.23047829 C392.42195965 2.23221454 391.58305886 2.23395079 390.71873683 2.23573965 C341.04170977 2.33868054 291.36469622 2.44677411 241.68769513 2.56159523 C235.72811555 2.57536545 229.76853588 2.58909245 223.80895615 2.60279274 C222.62246901 2.60552104 221.43598188 2.60824935 220.21354059 2.61106033 C200.98088975 2.65518227 181.74823302 2.69579972 162.51557186 2.7351309 C142.7934419 2.77554073 123.07132291 2.81969604 103.34920913 2.86735684 C91.17138383 2.89666706 78.99355939 2.92302633 66.81571982 2.94565726 C58.47445625 2.96143777 50.13320612 2.98084352 41.79195746 3.0031467 C36.97347745 3.01592204 32.15500782 3.02705438 27.33651543 3.0338974 C22.93048308 3.04018979 18.52448649 3.05100519 14.11847375 3.06551159 C12.51951155 3.06996084 10.9205436 3.07270965 9.32157549 3.07364028 C7.15770854 3.0751414 4.99394625 3.08268483 2.83010006 3.09181309 C1.02282115 3.09580015 1.02282115 3.09580015 -0.82096845 3.09986776 C-3.80379344 3.10008896 -3.80379344 3.10008896 -6.73913956 4.23047829 C-8.05913956 4.23047829 -9.37913956 4.23047829 -10.73913956 4.23047829 C-10.73913956 3.57047829 -10.73913956 2.91047829 -10.73913956 2.23047829 C-7.14421759 -0.01371288 -4.18648329 -0.01309913 0 0 Z " fill="#337AE1" transform="translate(61.739139556884766,48.769521713256836)"/>
<path d="M0 0 C7.59 0 15.18 0 23 0 C23.01213028 2.38754265 23.01213028 2.38754265 23.02450562 4.82331848 C23.1020894 19.845151 23.18974442 34.86688689 23.28752708 49.88860035 C23.33753839 57.61085362 23.3839821 65.33309689 23.421875 73.05541992 C23.45493162 79.79026152 23.49483711 86.52502274 23.54279006 93.25977534 C23.56791996 96.82207806 23.58974017 100.3843284 23.60334396 103.94669533 C23.61870081 107.93438795 23.64935575 111.92182836 23.68115234 115.90942383 C23.68331253 117.07612106 23.68547272 118.2428183 23.68769836 119.44487 C23.793057 129.83160619 25.3918213 139.25791751 29 149 C28.34 149 27.68 149 27 149 C27 148.34 27 147.68 27 147 C26.34 147 25.68 147 25 147 C20.22203327 132.28594657 20.54382263 117.75516741 20.79635334 102.42937922 C20.85020769 98.88752536 20.87998665 95.34546214 20.91253662 91.80335999 C20.97746201 85.1242075 21.06341488 78.44550544 21.15730643 71.76670414 C21.26331439 64.15114773 21.34529753 56.53538853 21.4254632 48.91952312 C21.59062222 33.27930704 21.78615188 17.63963046 22 2 C15.07 2 8.14 2 1 2 C1 45.23 1 88.46 1 133 C0.67 133 0.34 133 0 133 C0 89.11 0 45.22 0 0 Z " fill="#5E92E0" transform="translate(162,192)"/>
<path d="M0 0 C0.98484375 -0.00128906 1.9696875 -0.00257813 2.984375 -0.00390625 C4.02078125 -0.00003906 5.0571875 0.00382813 6.125 0.0078125 C7.67960937 0.00201172 7.67960937 0.00201172 9.265625 -0.00390625 C10.25046875 -0.00261719 11.2353125 -0.00132812 12.25 0 C13.16007812 0.00112793 14.07015625 0.00225586 15.0078125 0.00341797 C17.125 0.1328125 17.125 0.1328125 18.125 1.1328125 C18.23499336 2.61759313 18.27625511 4.1075272 18.28994751 5.59631348 C18.30118149 6.56072357 18.31241547 7.52513367 18.32398987 8.51876831 C18.33131638 9.5857193 18.33864288 10.65267029 18.34619141 11.75195312 C18.3576973 12.8690567 18.36920319 13.98616028 18.38105774 15.13711548 C18.4179311 18.85440261 18.4474735 22.57170686 18.4765625 26.2890625 C18.49967084 28.8668238 18.5230611 31.44458258 18.54672241 34.02233887 C18.5952789 39.43967564 18.64027513 44.85702558 18.68261719 50.27441406 C18.73150883 56.52102778 18.78782533 62.76754168 18.84803832 69.01405573 C18.90579646 75.03091416 18.95745782 81.0478075 19.00663376 87.06474304 C19.02815671 89.61953637 19.05129728 92.17431661 19.0760994 94.7290802 C19.11014521 98.31220535 19.1372511 101.89531976 19.16259766 105.47851562 C19.17966011 107.05465134 19.17966011 107.05465134 19.19706726 108.66262817 C19.23059048 114.57689626 18.89886757 120.2678008 18.125 126.1328125 C17.795 126.1328125 17.465 126.1328125 17.125 126.1328125 C16.63 65.2478125 16.63 65.2478125 16.125 3.1328125 C9.525 2.8028125 2.925 2.4728125 -3.875 2.1328125 C-4.205 44.7028125 -4.535 87.2728125 -4.875 131.1328125 C-5.205 131.1328125 -5.535 131.1328125 -5.875 131.1328125 C-5.89832869 114.20019046 -5.91597903 97.26757342 -5.92681217 80.334939 C-5.93197519 72.47336859 -5.93901801 64.61180815 -5.95043945 56.75024414 C-5.9603861 49.90055775 -5.96685338 43.05087858 -5.96908849 36.20118517 C-5.97039563 32.57211854 -5.97348169 28.94307256 -5.98073006 25.31401253 C-5.98874356 21.26930946 -5.98899115 17.22464261 -5.98852539 13.17993164 C-5.99212067 11.96793091 -5.99571594 10.75593018 -5.99942017 9.50720215 C-5.9980455 8.41198746 -5.99667084 7.31677277 -5.99525452 6.18836975 C-5.99617631 5.23062684 -5.9970981 4.27288393 -5.99804783 3.28611851 C-5.76513847 -0.78973653 -3.55234242 0.00440269 0 0 Z " fill="#9DC6FB" transform="translate(283.875,191.8671875)"/>
<path d="M0 0 C0.33 0 0.66 0 1 0 C1.09373175 17.62075367 1.16411974 35.24142876 1.20724869 52.86237526 C1.22781272 61.04537958 1.25581438 69.22822837 1.30175781 77.41113281 C1.34181544 84.54917176 1.36747749 91.68709798 1.37635398 98.82524621 C1.38153697 102.59961884 1.39358762 106.37366917 1.42292023 110.14793777 C1.4503899 113.7119082 1.45838262 117.27542846 1.45243073 120.83949471 C1.45402888 122.7476951 1.47538459 124.65584826 1.49768066 126.56391907 C1.44712465 137.33943325 -0.68872107 147.52953207 -6 157 C-6.66 157.33 -7.32 157.66 -8 158 C-8.33 155.69 -8.66 153.38 -9 151 C-7.68 151 -6.36 151 -5 151 C-4.93941406 150.02417969 -4.87882812 149.04835938 -4.81640625 148.04296875 C-4.73261719 146.77066406 -4.64882813 145.49835938 -4.5625 144.1875 C-4.48128906 142.92292969 -4.40007812 141.65835938 -4.31640625 140.35546875 C-3.94098075 136.37410454 -3.22519328 134.33778992 -1 131 C-0.68819582 128.50615598 -0.68819582 128.50615598 -0.7215271 125.66596985 C-0.71036362 124.55959167 -0.69920013 123.4532135 -0.68769836 122.31330872 C-0.68553818 121.0991478 -0.68337799 119.88498688 -0.68115234 118.6340332 C-0.66608391 116.71679947 -0.66608391 116.71679947 -0.65071106 114.76083374 C-0.62338063 111.25493763 -0.60825272 107.74908178 -0.59528303 104.24310708 C-0.57966575 100.57952008 -0.55287109 96.91601544 -0.5272522 93.25248718 C-0.4804395 86.31463004 -0.44370749 79.37675744 -0.41057932 72.43882293 C-0.3723755 64.54042476 -0.32296081 56.64210925 -0.27259517 48.74378073 C-0.16923828 32.49591316 -0.07999014 16.24799976 0 0 Z " fill="#3B7BDB" transform="translate(300,195)"/>
<path d="M0 0 C-0.66 0.66 -1.32 1.32 -2 2 C-2.53367187 1.79503906 -3.06734375 1.59007812 -3.6171875 1.37890625 C-8.79082627 -0.49183856 -13.54131471 -1.43323336 -19.03125 -1.7890625 C-21 -2 -21 -2 -22 -3 C-34.81246758 -4.09863955 -52.53068895 -4.74988162 -64 2 C-64.33 2.33 -64.66 2.66 -65 3 C-66.51928038 3.07179964 -68.04167482 3.08392007 -69.5625 3.0625 C-70.38878906 3.05347656 -71.21507812 3.04445312 -72.06640625 3.03515625 C-72.70449219 3.02355469 -73.34257812 3.01195312 -74 3 C-72.65664533 0.31329066 -70.9733265 0.09036292 -68.24194336 -0.8527832 C-46.67817352 -7.85922441 -21.09247197 -9.61687419 0 0 Z " fill="#659AEA" transform="translate(325,129)"/>
<path d="M0 0 C0.99 0.33 1.98 0.66 3 1 C5.27921744 8.29000409 5.27314763 15.36987344 5.22705078 22.95532227 C5.22734283 24.22460068 5.22763489 25.49387909 5.22793579 26.80162048 C5.2285058 30.25558068 5.21680906 33.70939982 5.20278788 37.16332746 C5.19022132 40.78278197 5.18910537 44.40224029 5.18673706 48.02171326 C5.18053961 54.86380934 5.16415246 61.70584094 5.14403808 68.54790872 C5.12162485 76.34239776 5.11067205 84.13689 5.10064721 91.93140328 C5.07978455 107.9543065 5.04464259 123.977145 5 140 C4.67 140 4.34 140 4 140 C3.99761165 139.34346467 3.99522329 138.68692934 3.99276257 138.010499 C3.93353555 122.0094775 3.85793647 106.0086288 3.76428509 90.00777531 C3.71938697 82.26976448 3.67995864 74.53179907 3.65356445 66.79370117 C3.63053575 60.04639698 3.59708367 53.29923721 3.55129844 46.55204767 C3.52743158 42.98195844 3.50866015 39.41201165 3.50238609 35.84184456 C3.49517317 31.84886563 3.46468188 27.8563802 3.43237305 23.86352539 C3.43380814 22.6896376 3.43524323 21.51574982 3.4367218 20.30628967 C3.36831281 14.3166294 2.84804446 9.30726411 0.64104939 3.71182919 C0 2 0 2 0 0 Z " fill="#3A7EE8" transform="translate(334,171)"/>
<path d="M0 0 C6.93 0 13.86 0 21 0 C21 37.29 21 74.58 21 113 C20.67 113 20.34 113 20 113 C20 76.04 20 39.08 20 1 C14.39 1 8.78 1 3 1 C3 1.66 3 2.32 3 3 C2.01 3 1.02 3 0 3 C0 2.01 0 1.02 0 0 Z " fill="#357CEB" transform="translate(163,194)"/>
<path d="M0 0 C0.33 0 0.66 0 1 0 C1.70612404 6.637566 -0.39245223 10.51542864 -4 16 C-4.76183594 17.20462891 -4.76183594 17.20462891 -5.5390625 18.43359375 C-9.76986246 24.53917947 -13.93580925 26.9711476 -21 29 C-22.01191406 29.35964844 -23.02382812 29.71929687 -24.06640625 30.08984375 C-29.25320378 31.56124077 -34.59417381 31.21123618 -39.9375 31.125 C-41.00291016 31.11597656 -42.06832031 31.10695313 -43.16601562 31.09765625 C-45.77758034 31.07423414 -48.38866937 31.04143452 -51 31 C-51 30.67 -51 30.34 -51 30 C-49.71867188 29.98582031 -48.43734375 29.97164063 -47.1171875 29.95703125 C-34.6803996 29.67021385 -23.25418732 28.82797336 -13 21 C-12.34 21 -11.68 21 -11 21 C-11 20.34 -11 19.68 -11 19 C-9.68799596 17.64567325 -8.35368596 16.31266518 -7 15 C-6.67 14.34 -6.34 13.68 -6 13 C-5.34 13 -4.68 13 -4 13 C-3.86722656 12.43796875 -3.73445313 11.8759375 -3.59765625 11.296875 C-2.97562889 8.90633847 -2.22884959 6.58964225 -1.4375 4.25 C-1.16808594 3.45078125 -0.89867187 2.6515625 -0.62109375 1.828125 C-0.41613281 1.22484375 -0.21117187 0.6215625 0 0 Z " fill="#74A9EE" transform="translate(276,330)"/>
<path d="M0 0 C2.97 0 5.94 0 9 0 C9 0.66 9 1.32 9 2 C23.85 2 38.7 2 54 2 C44.28227238 8.47848508 22.245362 5.86272867 11 4 C7.29209398 3.1242634 3.64122828 2.11983616 0 1 C0 0.67 0 0.34 0 0 Z " fill="#5C97ED" transform="translate(201,377)"/>
<path d="M0 0 C-1.3125 1.5 -1.3125 1.5 -3 3 C-3.99 3 -4.98 3 -6 3 C-6 17.85 -6 32.7 -6 48 C-6.33 48 -6.66 48 -7 48 C-7.01458252 46.79875488 -7.02916504 45.59750977 -7.04418945 44.35986328 C-7.10205992 39.91294227 -7.17929262 35.46653366 -7.26245117 31.02001953 C-7.29575369 29.09367169 -7.32376889 27.16722501 -7.34643555 25.24072266 C-7.37988424 22.4751565 -7.43219336 19.71050047 -7.48828125 16.9453125 C-7.49467117 16.0806839 -7.5010611 15.2160553 -7.50764465 14.32522583 C-7.53920053 11.64736337 -7.53920053 11.64736337 -8 8 C-8.99 7.34 -9.98 6.68 -11 6 C-10.42655063 3.13275314 -10.1385485 2.1385485 -8 0 C-4.69164744 -0.93312508 -3.32320026 -1.10773342 0 0 Z " fill="#4A88DC" transform="translate(57,48)"/>
<path d="M0 0 C1.14017578 0.00193359 2.28035156 0.00386719 3.45507812 0.00585938 C5.21948242 0.02422852 5.21948242 0.02422852 7.01953125 0.04296875 C8.80133789 0.04393555 8.80133789 0.04393555 10.61914062 0.04492188 C19.41002124 0.08979875 19.41002124 0.08979875 22.83203125 1.23046875 C22.83203125 1.89046875 22.83203125 2.55046875 22.83203125 3.23046875 C22.15736816 3.22523193 21.48270508 3.21999512 20.78759766 3.21459961 C17.67741865 3.19358129 14.56725467 3.18073051 11.45703125 3.16796875 C10.39613281 3.15958984 9.33523438 3.15121094 8.2421875 3.14257812 C1.70530921 3.12252635 -4.67971699 3.42466095 -11.16796875 4.23046875 C-11.49796875 3.57046875 -11.82796875 2.91046875 -12.16796875 2.23046875 C-7.95962182 0.6440371 -4.49051857 -0.01776285 0 0 Z " fill="#6097EA" transform="translate(284.16796875,142.76953125)"/>
<path d="M0 0 C0.99 0.33 1.98 0.66 3 1 C5.19360308 8.08614904 5.26503655 14.88482267 5.1953125 22.25390625 C5.1924826 23.39536606 5.18965271 24.53682587 5.18673706 25.71287537 C5.17561476 29.32952723 5.15052481 32.94592401 5.125 36.5625 C5.11495993 39.02668911 5.10583588 41.49088214 5.09765625 43.95507812 C5.0757015 49.97013792 5.04230374 55.98505073 5 62 C4.67 62 4.34 62 4 62 C3.99413376 61.38105362 3.98826752 60.76210724 3.98222351 60.12440491 C3.91802165 53.65092133 3.8335341 47.17792263 3.73754883 40.70483398 C3.70440525 38.29278986 3.67634082 35.88067015 3.65356445 33.46850586 C3.61982428 29.99039665 3.56749738 26.51297356 3.51171875 23.03515625 C3.50532883 21.96604507 3.4989389 20.8969339 3.49235535 19.79542542 C3.37992048 13.99946645 2.74752429 9.16016956 0.63825989 3.74095154 C0 2 0 2 0 0 Z " fill="#3A7DE7" transform="translate(334,171)"/>
<path d="M0 0 C0.33 0 0.66 0 1 0 C1.69976181 10.14654622 -1.00159613 20.14456007 -6 29 C-6.66 29.33 -7.32 29.66 -8 30 C-8.33 27.69 -8.66 25.38 -9 23 C-7.68 23 -6.36 23 -5 23 C-4.93941406 22.02417969 -4.87882812 21.04835938 -4.81640625 20.04296875 C-4.73261719 18.77066406 -4.64882813 17.49835938 -4.5625 16.1875 C-4.48128906 14.92292969 -4.40007812 13.65835937 -4.31640625 12.35546875 C-3.94098075 8.37410454 -3.22519328 6.33778992 -1 3 C-0.67 2.01 -0.34 1.02 0 0 Z " fill="#5791EA" transform="translate(300,323)"/>
<path d="M0 0 C0.33 0 0.66 0 1 0 C1.03738281 0.63164062 1.07476562 1.26328125 1.11328125 1.9140625 C1.92547549 12.96627428 4.2288601 23.58447074 8 34 C7.34 34 6.68 34 6 34 C6 33.34 6 32.68 6 32 C5.34 32 4.68 32 4 32 C1.00831888 21.08837733 -0.59419429 11.33920764 0 0 Z " fill="#3E84E8" transform="translate(183,307)"/>
<path d="M0 0 C0.33 0.99 0.66 1.98 1 3 C-0.26257233 4.17560179 -1.53537084 5.34022865 -2.8125 6.5 C-3.87404297 7.47453125 -3.87404297 7.47453125 -4.95703125 8.46875 C-7 10 -7 10 -10 10 C-11.33981486 10.3062434 -12.67511887 10.63451555 -14 11 C-13.67 10.01 -13.34 9.02 -13 8 C-12.34 8 -11.68 8 -11 8 C-11 7.34 -11 6.68 -11 6 C-9.1015625 4.4921875 -9.1015625 4.4921875 -6.625 2.875 C-5.81289062 2.33617187 -5.00078125 1.79734375 -4.1640625 1.2421875 C-2 0 -2 0 0 0 Z " fill="#2E7EF3" transform="translate(251,132)"/>
<path d="M0 0 C3.3 0 6.6 0 10 0 C5.07925095 4.75106805 -1.98289396 7.84549592 -8.84375 8.109375 C-9.5553125 8.07328125 -10.266875 8.0371875 -11 8 C-11.33 7.34 -11.66 6.68 -12 6 C-10.02 6 -8.04 6 -6 6 C-6 5.34 -6 4.68 -6 4 C-4.02 4 -2.04 4 0 4 C0 2.68 0 1.36 0 0 Z " fill="#5891EC" transform="translate(266,371)"/>
<path d="M0 0 C0.66 0.33 1.32 0.66 2 1 C-3.77047148 4.44008877 -7.61009104 6.13549949 -14.421875 6.09765625 C-15.44667969 6.09443359 -16.47148437 6.09121094 -17.52734375 6.08789062 C-18.59082031 6.07951172 -19.65429688 6.07113281 -20.75 6.0625 C-21.82894531 6.05798828 -22.90789062 6.05347656 -24.01953125 6.04882812 C-26.67974383 6.03705727 -29.33984365 6.02061399 -32 6 C-32 5.67 -32 5.34 -32 5 C-30.69546875 4.97421875 -29.3909375 4.9484375 -28.046875 4.921875 C-18.83199615 4.65204218 -10.7236134 4.27740494 -2.1171875 0.7421875 C-1.41851562 0.49726563 -0.71984375 0.25234375 0 0 Z " fill="#7CADED" transform="translate(257,355)"/>
<path d="M0 0 C0.99 0 1.98 0 3 0 C2.690625 0.94875 2.38125 1.8975 2.0625 2.875 C0.90250071 6.84171084 0.59570866 10.75005615 0.34375 14.86328125 C0 17 0 17 -2 19 C-2.05428973 16.77110504 -2.09292338 14.54182529 -2.125 12.3125 C-2.15980469 10.45044922 -2.15980469 10.45044922 -2.1953125 8.55078125 C-2.01032021 5.18762143 -1.45767895 3.0014413 0 0 Z " fill="#6097E8" transform="translate(245,169)"/>
<path d="M0 0 C3.63 0.33 7.26 0.66 11 1 C11 2.32 11 3.64 11 5 C11.66 5 12.32 5 13 5 C13 5.66 13 6.32 13 7 C7.83572624 5.7605743 4.24563172 4.21011179 0 1 C0 0.67 0 0.34 0 0 Z " fill="#5E97EE" transform="translate(187,370)"/>
<path d="M0 0 C0.33 0 0.66 0 1 0 C1.50904657 1.87256417 2.00682455 3.74819341 2.5 5.625 C2.7784375 6.66914063 3.056875 7.71328125 3.34375 8.7890625 C3.99118596 11.95687418 4.1161292 14.77741467 4 18 C3.34 18 2.68 18 2 18 C0.59545452 11.88019467 -0.23268915 6.28260706 0 0 Z " fill="#64A0EE" transform="translate(356,163)"/>
<path d="M0 0 C0.99 0.33 1.98 0.66 3 1 C3 1.66 3 2.32 3 3 C4.3303125 3.4021875 4.3303125 3.4021875 5.6875 3.8125 C8.76877548 4.91710819 11.26221405 6.22849144 14 8 C13.67 8.66 13.34 9.32 13 10 C9.19925366 8.91952027 5.54081649 7.76772987 2 6 C0.3125 2.75 0.3125 2.75 0 0 Z " fill="#6A9DEC" transform="translate(197,349)"/>
<path d="M0 0 C0.33 1.32 0.66 2.64 1 4 C0.34 4 -0.32 4 -1 4 C-1 5.32 -1 6.64 -1 8 C-1.66 8 -2.32 8 -3 8 C-3.33 11.3 -3.66 14.6 -4 18 C-4.99 18 -5.98 18 -7 18 C-6.44380331 13.3110507 -5.11817327 9.80075733 -2.9375 5.625 C-2.38964844 4.56539062 -1.84179688 3.50578125 -1.27734375 2.4140625 C-0.85582031 1.61742187 -0.43429688 0.82078125 0 0 Z " fill="#699FEC" transform="translate(231,149)"/>
<path d="M0 0 C1.32 0.33 2.64 0.66 4 1 C-0.18461538 6.78461538 -0.18461538 6.78461538 -4.3125 7.875 C-5.6428125 7.936875 -5.6428125 7.936875 -7 8 C-5.86280581 4.58841744 -4.95657056 3.88145399 -2 2 C-1.34 2 -0.68 2 0 2 C0 1.34 0 0.68 0 0 Z " fill="#4E8BEE" transform="translate(265,349)"/>
<path d="M0 0 C0.33 1.32 0.66 2.64 1 4 C1.66 4 2.32 4 3 4 C3.144375 5.093125 3.28875 6.18625 3.4375 7.3125 C3.88288104 10.93122987 3.88288104 10.93122987 5 14 C4.67 14.66 4.34 15.32 4 16 C-0.59655172 6.37931034 -0.59655172 6.37931034 -1 1 C-0.67 0.67 -0.34 0.34 0 0 Z " fill="#6FA4F0" transform="translate(166,336)"/>
<path d="M0 0 C-2 2 -2 2 -4.625 2.125 C-5.40875 2.08375 -6.1925 2.0425 -7 2 C-7 2.99 -7 3.98 -7 5 C-8.32 5.33 -9.64 5.66 -11 6 C-10.42655063 3.13275314 -10.1385485 2.1385485 -8 0 C-4.69164744 -0.93312508 -3.32320026 -1.10773342 0 0 Z " fill="#DFEFF0" transform="translate(57,48)"/>
<path d="M0 0 C0.33 0 0.66 0 1 0 C1.103125 0.969375 1.20625 1.93875 1.3125 2.9375 C1.94629879 7.48593839 3.44755827 11.69417104 5 16 C4.34 16 3.68 16 3 16 C3 15.34 3 14.68 3 14 C2.34 14 1.68 14 1 14 C0.04738513 9.23692563 -0.08333357 4.8333472 0 0 Z " fill="#6A9EE7" transform="translate(186,325)"/>
<path d="M0 0 C4.75612527 3.60809503 5.60804595 8.47436423 7 14 C6.34 14 5.68 14 5 14 C3.50178941 10.62902617 3 8.79557881 3 5 C2.01 4.67 1.02 4.34 0 4 C0 2.68 0 1.36 0 0 Z " fill="#6EA0EC" transform="translate(349,149)"/>
<path d="M0 0 C2.97 0.33 5.94 0.66 9 1 C9 1.66 9 2.32 9 3 C6.03 3 3.06 3 0 3 C0 2.01 0 1.02 0 0 Z " fill="#5898F0" transform="translate(298,143)"/>
<path d="M0 0 C0.66 0 1.32 0 2 0 C0.8141763 3.37503669 -0.27573689 5.64722731 -3 8 C-3.66 7.67 -4.32 7.34 -5 7 C-3.625 4.5 -3.625 4.5 -2 2 C-1.34 2 -0.68 2 0 2 C0 1.34 0 0.68 0 0 Z " fill="#679CE8" transform="translate(272,341)"/>
<path d="M0 0 C-1 1 -1 1 -3.06640625 1.09765625 C-3.89011719 1.08605469 -4.71382813 1.07445312 -5.5625 1.0625 C-6.38878906 1.05347656 -7.21507812 1.04445312 -8.06640625 1.03515625 C-8.70449219 1.02355469 -9.34257812 1.01195312 -10 1 C-9.67 0.34 -9.34 -0.32 -9 -1 C-3.609375 -2.40625 -3.609375 -2.40625 0 0 Z " fill="#5891EB" transform="translate(261,131)"/>
<path d="M0 0 C0.99 0.33 1.98 0.66 3 1 C3.625 3.875 3.625 3.875 4 7 C3.34 7.66 2.68 8.32 2 9 C1.34 6.03 0.68 3.06 0 0 Z " fill="#70A0EE" transform="translate(334,171)"/>
<path d="M0 0 C2.97 0 5.94 0 9 0 C6.01193893 1.49403054 3.10343799 2.79310745 0 4 C0 2.68 0 1.36 0 0 Z " fill="#71A2F3" transform="translate(263,147)"/>
<path d="M0 0 C3.0831351 1.19899698 6.06279492 2.47700477 9 4 C8.67 4.66 8.34 5.32 8 6 C4.5625 4.6875 4.5625 4.6875 1 3 C0.67 2.01 0.34 1.02 0 0 Z " fill="#72A8EA" transform="translate(327,130)"/>
<path d="M0 0 C0.66 0.33 1.32 0.66 2 1 C-0.71182212 3.60334924 -1.89133813 3.99456691 -5.75 4.1875 C-6.8225 4.125625 -7.895 4.06375 -9 4 C-6.06195683 2.47657021 -3.13439441 1.07229283 0 0 Z " fill="#74A4ED" transform="translate(257,355)"/>
<path d="M0 0 C0.66 0.33 1.32 0.66 2 1 C2 2.32 2 3.64 2 5 C0.35 5.33 -1.3 5.66 -3 6 C-2.01 4.02 -1.02 2.04 0 0 Z " fill="#699DEE" transform="translate(235,143)"/>
<path d="M0 0 C0.33 0.99 0.66 1.98 1 3 C-2.75 6 -2.75 6 -5 6 C-4.67 5.01 -4.34 4.02 -4 3 C-3.34 3 -2.68 3 -2 3 C-2 2.34 -2 1.68 -2 1 C-1.34 0.67 -0.68 0.34 0 0 Z " fill="#6D9AEF" transform="translate(242,137)"/>
<path d="M0 0 C0.33 0.99 0.66 1.98 1 3 C-0.65 3 -2.3 3 -4 3 C-4 3.66 -4 4.32 -4 5 C-5.32 4.67 -6.64 4.34 -8 4 C-2.25 0 -2.25 0 0 0 Z " fill="#5C97EB" transform="translate(251,132)"/>
<path d="" fill="#FFFFFF" transform="translate(0,0)"/>
<path d="" fill="#FFFFFF" transform="translate(0,0)"/>
<path d="" fill="#FFFFFF" transform="translate(0,0)"/>
<path d="" fill="#FFFFFF" transform="translate(0,0)"/>
<path d="" fill="#FFFFFF" transform="translate(0,0)"/>
<path d="" fill="#FFFFFF" transform="translate(0,0)"/>
<path d="" fill="#FFFFFF" transform="translate(0,0)"/>
<path d="" fill="#FFFFFF" transform="translate(0,0)"/>
<path d="" fill="#FFFFFF" transform="translate(0,0)"/>
<path d="" fill="#FFFFFF" transform="translate(0,0)"/>
<path d="" fill="#FFFFFF" transform="translate(0,0)"/>
<path d="" fill="#FFFFFF" transform="translate(0,0)"/>
<path d="" fill="#FFFFFF" transform="translate(0,0)"/>
<path d="" fill="#FFFFFF" transform="translate(0,0)"/>
<path d="" fill="#FFFFFF" transform="translate(0,0)"/>
<path d="" fill="#FFFFFF" transform="translate(0,0)"/>
<path d="" fill="#FFFFFF" transform="translate(0,0)"/>
<path d="" fill="#FFFFFF" transform="translate(0,0)"/>
<path d="" fill="#FFFFFF" transform="translate(0,0)"/>
<path d="" fill="#FFFFFF" transform="translate(0,0)"/>
<path d="" fill="#FFFFFF" transform="translate(0,0)"/>
<path d="" fill="#FFFFFF" transform="translate(0,0)"/>
<path d="" fill="#FFFFFF" transform="translate(0,0)"/>
<path d="" fill="#FFFFFF" transform="translate(0,0)"/>
<path d="" fill="#FFFFFF" transform="translate(0,0)"/>
<path d="" fill="#FFFFFF" transform="translate(0,0)"/>
<path d="" fill="#FFFFFF" transform="translate(0,0)"/>
<path d="" fill="#FFFFFF" transform="translate(0,0)"/>
<path d="" fill="#FFFFFF" transform="translate(0,0)"/>
<path d="" fill="#FFFFFF" transform="translate(0,0)"/>
<path d="" fill="#FFFFFF" transform="translate(0,0)"/>
<path d="" fill="#FFFFFF" transform="translate(0,0)"/>
<path d="" fill="#FFFFFF" transform="translate(0,0)"/>
<path d="" fill="#FFFFFF" transform="translate(0,0)"/>
<path d="" fill="#FFFFFF" transform="translate(0,0)"/>
<path d="" fill="#FFFFFF" transform="translate(0,0)"/>
<path d="" fill="#FFFFFF" transform="translate(0,0)"/>
<path d="" fill="#FFFFFF" transform="translate(0,0)"/>
<path d="" fill="#FFFFFF" transform="translate(0,0)"/>
<path d="" fill="#FFFFFF" transform="translate(0,0)"/>
<path d="" fill="#FFFFFF" transform="translate(0,0)"/>
<path d="" fill="#FFFFFF" transform="translate(0,0)"/>
<path d="" fill="#FFFFFF" transform="translate(0,0)"/>
<path d="" fill="#FFFFFF" transform="translate(0,0)"/>
<path d="" fill="#FFFFFF" transform="translate(0,0)"/>
<path d="" fill="#FFFFFF" transform="translate(0,0)"/>
<path d="" fill="#FFFFFF" transform="translate(0,0)"/>
<path d="" fill="#FFFFFF" transform="translate(0,0)"/>
<path d="" fill="#FFFFFF" transform="translate(0,0)"/>
</svg>
